<svg width="30" height="32" viewBox="0 0 30 32" fill="none" xmlns="http://www.w3.org/2000/svg">
<path opacity="0.4" d="M13.8322 17.7273L0.484344 4.37259C0.330849 4.22 0.209036 4.03858 0.125914 3.83874C0.0427919 3.63891 0 3.42461 0 3.20818C0 2.99174 0.0427919 2.77745 0.125914 2.57761C0.209036 2.37778 0.330849 2.19635 0.484344 2.04376L2.04376 0.484344C2.35355 0.177346 2.77204 0.0051083 3.20818 0.0051083C3.64431 0.0051083 4.0628 0.177346 4.37259 0.484344L15 11.0637L25.6274 0.484344C25.78 0.330849 25.9614 0.209036 26.1613 0.125914C26.3611 0.0427919 26.5754 0 26.7918 0C27.0083 0 27.2226 0.0427919 27.4224 0.125914C27.6222 0.209036 27.8037 0.330849 27.9562 0.484344L29.5157 2.04376C29.6692 2.19635 29.791 2.37778 29.8741 2.57761C29.9572 2.77745 30 2.99174 30 3.20818C30 3.42461 29.9572 3.63891 29.8741 3.83874C29.791 4.03858 29.6692 4.22 29.5157 4.37259L16.1678 17.7273C15.8567 18.0344 15.4372 18.2065 15 18.2065C14.5628 18.2065 14.1433 18.0344 13.8322 17.7273Z" fill="white"/>
<path d="M13.8322 30.9172L0.484344 17.5625C0.330849 17.4099 0.209036 17.2285 0.125914 17.0287C0.0427919 16.8288 0 16.6146 0 16.3981C0 16.1817 0.0427919 15.9674 0.125914 15.7676C0.209036 15.5677 0.330849 15.3863 0.484344 15.2337L2.04376 13.6743C2.19635 13.5208 2.37778 13.399 2.57761 13.3159C2.77745 13.2327 2.99174 13.1899 3.20818 13.1899C3.42461 13.1899 3.63891 13.2327 3.83874 13.3159C4.03858 13.399 4.22 13.5208 4.37259 13.6743L15 24.2536L25.6274 13.6743C25.9372 13.3673 26.3557 13.1951 26.7918 13.1951C27.228 13.1951 27.6465 13.3673 27.9562 13.6743L29.5157 15.2337C29.6692 15.3863 29.791 15.5677 29.8741 15.7676C29.9572 15.9674 30 16.1817 30 16.3981C30 16.6146 29.9572 16.8288 29.8741 17.0287C29.791 17.2285 29.6692 17.4099 29.5157 17.5625L16.1678 30.9172C15.8567 31.2243 15.4372 31.3965 15 31.3965C14.5628 31.3965 14.1433 31.2243 13.8322 30.9172Z" fill="white"/>
</svg>
