<svg width="40" height="26" viewBox="0 0 40 26" fill="none" xmlns="http://www.w3.org/2000/svg">
<path d="M27.5712 0.935067L26.9491 1.63479C26.5369 2.09857 26.5369 2.85055 26.9491 3.31443L34.3326 11.573H1.26419C0.681182 11.573 0.208496 12.1048 0.208496 12.7606V13.7503C0.208496 14.4062 0.681182 14.938 1.26419 14.938H34.3326L26.9491 23.1966C26.5369 23.6603 26.5369 24.4123 26.9491 24.8762L27.5712 25.5759C27.9834 26.0397 28.6518 26.0397 29.0641 25.5759L39.3118 14.0953C39.724 13.6315 39.724 12.8795 39.3118 12.4156L29.0641 0.935067C28.6518 0.471189 27.9834 0.471189 27.5712 0.935067Z" fill="url(#paint0_linear)"/>
<defs>
<linearGradient id="paint0_linear" x1="39.621" y1="12.7141" x2="-2.82323" y2="12.7141" gradientUnits="userSpaceOnUse">
<stop stop-color="#78769E"/>
<stop offset="1" stop-color="#3A394F"/>
</linearGradient>
</defs>
</svg>
