<svg xmlns="http://www.w3.org/2000/svg" xmlns:xlink="http://www.w3.org/1999/xlink" viewBox="0 0 41.51 41.55"><defs><style>.cls-1{isolation:isolate;}.cls-2{fill:url(#Безымянный_градиент_4);}.cls-3{opacity:0.3;mix-blend-mode:overlay;}.cls-4{fill:none;stroke:#5d1882;stroke-miterlimit:10;}.cls-5{fill:url(#Безымянный_градиент_6);}.cls-6{fill:#5d1882;}.cls-7{fill:#fbb4ff;}.cls-8{fill:#e46cfa;}.cls-9{opacity:0.29;}.cls-10{fill:#fff;}.cls-11{fill:#fcccff;}.cls-12{opacity:0.2;mix-blend-mode:screen;fill:url(#Безымянный_градиент_4-2);}</style><linearGradient id="Безымянный_градиент_4" y1="20.8" x2="41.51" y2="20.8" gradientTransform="translate(-8.63 20.77) rotate(-45)" gradientUnits="userSpaceOnUse"><stop offset="0" stop-color="#f255d8"/><stop offset="1" stop-color="#8821bb"/></linearGradient><linearGradient id="Безымянный_градиент_6" x1="7.5" y1="20.8" x2="34.01" y2="20.8" gradientUnits="userSpaceOnUse"><stop offset="0" stop-color="#ff79fd"/><stop offset="1" stop-color="#e692ff"/></linearGradient><linearGradient id="Безымянный_градиент_4-2" x1="0" y1="20.75" x2="41.51" y2="20.75" gradientTransform="translate(-8.6 20.75) rotate(-45)" xlink:href="#Безымянный_градиент_4"/></defs><title>Cry</title><g class="cls-1"><g id="Слой_2" data-name="Слой 2"><g id="svg"><rect class="cls-2" x="5.79" y="5.83" width="29.94" height="29.94" rx="1" transform="translate(20.79 -8.58) rotate(45)"/><g class="cls-3"><path d="M20.75.05a1,1,0,0,1,.71.29L41.21,20.09a1,1,0,0,1,0,1.42L21.46,41.26a1,1,0,0,1-.71.29Z"/></g><g class="cls-3"><path d="M41.51,20.75a1,1,0,0,1-.3.71L21.46,41.21a1,1,0,0,1-1.41,0L.29,21.46A1,1,0,0,1,0,20.75Z"/></g><line class="cls-4" x1="9.94" y1="10.45" x2="31.09" y2="31.6"/><line class="cls-4" x1="31.51" y1="10.39" x2="10.34" y2="31.56"/><path class="cls-5" d="M20.75,34.05a1.49,1.49,0,0,1-1.06-.43L7.94,21.86a1.5,1.5,0,0,1,0-2.12L19.69,8a1.5,1.5,0,0,1,2.12,0L33.57,19.74a1.5,1.5,0,0,1,0,2.12L21.81,33.62A1.49,1.49,0,0,1,20.75,34.05Z"/><path class="cls-6" d="M20.75,8.05a1,1,0,0,1,.71.29L33.21,20.09a1,1,0,0,1,0,1.42L21.46,33.26a1,1,0,0,1-.71.29,1,1,0,0,1-.7-.29L8.29,21.51a1,1,0,0,1,0-1.42L20.05,8.34a1,1,0,0,1,.7-.29m0-1a2,2,0,0,0-1.41.59L7.59,19.39a2,2,0,0,0,0,2.83L19.34,34a2,2,0,0,0,2.83,0L33.92,22.22a2,2,0,0,0,0-2.83L22.17,7.64a2,2,0,0,0-1.42-.59Z"/><path class="cls-7" d="M20.75,22.05a1.49,1.49,0,0,1-1.06-.43l-6.82-6.83L19.69,8a1.5,1.5,0,0,1,2.12,0l6.82,6.81-6.82,6.83A1.49,1.49,0,0,1,20.75,22.05Z"/><path class="cls-8" d="M20.75,8a1,1,0,0,1,.71.29l6.47,6.47-.33.33-6.14,6.13a1,1,0,0,1-.71.29,1,1,0,0,1-.7-.29l-6.13-6.12-.34-.34,6.47-6.47a1,1,0,0,1,.7-.29m0-1a2,2,0,0,0-1.41.58l-6.47,6.47-.71.71.71.7.34.34L19.34,22a2,2,0,0,0,2.83,0l6.13-6.14.33-.33.71-.7-.71-.71L22.17,7.62A2,2,0,0,0,20.75,7Z"/><g class="cls-9"><path class="cls-10" d="M20.75,9h0l5.76,5.75-5.76,5.76L15,14.79,20.75,9h0m0-1a1,1,0,0,0-.7.29L13.58,14.8l.34.34,6.13,6.12a1,1,0,0,0,.7.29,1,1,0,0,0,.71-.29l6.14-6.13.33-.33L21.46,8.33A1,1,0,0,0,20.75,8Z"/></g><path class="cls-6" d="M20.75,8.05a1,1,0,0,1,.71.29L33.21,20.09a1,1,0,0,1,0,1.42L21.46,33.26a1,1,0,0,1-.71.29,1,1,0,0,1-.7-.29L8.29,21.51a1,1,0,0,1,0-1.42L20.05,8.34a1,1,0,0,1,.7-.29m0-1a2,2,0,0,0-1.41.59L7.59,19.39a2,2,0,0,0,0,2.83L19.34,34a2,2,0,0,0,2.83,0L33.92,22.22a2,2,0,0,0,0-2.83L22.17,7.64a2,2,0,0,0-1.42-.59Z"/><path class="cls-11" d="M20.75,9.05h0L32.51,20.8,20.75,32.55,9,20.8,20.75,9.05h0m0-1a1,1,0,0,0-.7.29L8.29,20.09a1,1,0,0,0,0,1.42L20.05,33.26a1,1,0,0,0,.7.29,1,1,0,0,0,.71-.29L33.21,21.51a1,1,0,0,0,0-1.42L21.46,8.34a1,1,0,0,0-.71-.29Z"/><rect class="cls-12" x="5.79" y="5.79" width="29.94" height="29.94" rx="1" transform="translate(20.75 -8.6) rotate(45)"/></g></g></g></svg>