<svg width="61" height="44" viewBox="0 0 61 44" fill="none" xmlns="http://www.w3.org/2000/svg">
<g filter="url(#filter0_d)">
<path d="M19.2469 0.709778C14.5724 0.709778 10.4477 4.55942 10.4477 9.50896C10.4477 14.1835 14.2974 18.3081 19.2469 18.3081C24.1965 18.3081 28.0461 14.4585 28.0461 9.50896C28.0461 4.83439 23.9215 0.709778 19.2469 0.709778ZM41.7948 0.709778C36.8453 0.709778 32.9956 4.55942 32.9956 9.50896C32.9956 14.4585 36.8453 18.3081 41.7948 18.3081C46.7443 18.3081 50.594 14.4585 50.594 9.50896C50.594 4.55942 46.4694 0.709778 41.7948 0.709778ZM19.2469 23.2577C7.14805 23.2577 3.02344 33.1567 3.02344 33.1567V38.1063H35.4704V33.1567C35.4704 33.1567 31.6208 23.2577 19.2469 23.2577ZM41.7948 23.2577C37.9452 23.2577 35.1954 24.3576 32.7207 25.4575C36.2953 28.4822 37.6702 31.7819 37.9452 32.0568L38.2201 32.6068V38.1063H58.0183V33.1567C58.0183 33.1567 53.8937 23.2577 41.7948 23.2577Z" fill="url(#paint0_linear)"/>
</g>
<defs>
<filter id="filter0_d" x="0.25297" y="0.709778" width="60.5358" height="42.9374" filterUnits="userSpaceOnUse" color-interpolation-filters="sRGB">
<feFlood flood-opacity="0" result="BackgroundImageFix"/>
<feColorMatrix in="SourceAlpha" type="matrix" values="0 0 0 0 0 0 0 0 0 0 0 0 0 0 0 0 0 0 127 0"/>
<feOffset dy="2.77047"/>
<feGaussianBlur stdDeviation="1.38523"/>
<feColorMatrix type="matrix" values="0 0 0 0 0 0 0 0 0 0 0 0 0 0 0 0 0 0 0.1 0"/>
<feBlend mode="normal" in2="BackgroundImageFix" result="effect1_dropShadow"/>
<feBlend mode="normal" in="SourceGraphic" in2="effect1_dropShadow" result="shape"/>
</filter>
<linearGradient id="paint0_linear" x1="30.5209" y1="0.709778" x2="30.5209" y2="38.1063" gradientUnits="userSpaceOnUse">
<stop stop-color="#78769E"/>
<stop offset="1" stop-color="#3A394F"/>
</linearGradient>
</defs>
</svg>
