<svg width="46" height="46" viewBox="0 0 46 46" fill="none" xmlns="http://www.w3.org/2000/svg">
<path d="M27.2852 13.1796H32.9155V18.81C32.9155 19.5877 33.5453 20.2176 34.323 20.2176H37.1382C37.9159 20.2176 38.5458 19.5877 38.5458 18.81V13.1796H44.1761C44.9537 13.1796 45.5836 12.5498 45.5836 11.7721V8.95688C45.5836 8.17919 44.9537 7.54929 44.1761 7.54929H38.5458V1.91894C38.5458 1.14125 37.9159 0.511353 37.1382 0.511353H34.323C33.5453 0.511353 32.9155 1.14125 32.9155 1.91894V7.54929H27.2852C26.5075 7.54929 25.8776 8.17919 25.8776 8.95688V11.7721C25.8776 12.5498 26.5075 13.1796 27.2852 13.1796ZM44.4919 32.5428L39.3419 30.2088L25.1615 36.6362C24.4964 36.938 23.79 37.0911 23.0624 37.0911C22.3349 37.0911 21.6293 36.938 20.9634 36.6362L6.78295 30.2088L1.63299 32.5428C0.177026 33.2026 0.177026 35.402 1.63299 36.0618L22.1255 45.351C22.7237 45.6219 23.4003 45.6219 23.9985 45.351L44.4919 36.0618C45.9478 35.402 45.9478 33.2026 44.4919 32.5428ZM1.63299 24.7835L22.1255 34.0727C22.7237 34.3436 23.4003 34.3436 23.9985 34.0727L39.9533 26.8403V25.2057C38.6056 25.5911 37.2024 25.8471 35.7306 25.8471C27.9881 25.8471 21.5915 20.1578 20.4479 12.7354L1.63299 21.2645C0.177026 21.9243 0.177026 24.1236 1.63299 24.7835Z" fill="url(#paint0_linear)"/>
<defs>
<linearGradient id="paint0_linear" x1="23.0624" y1="0.511353" x2="23.0624" y2="45.5542" gradientUnits="userSpaceOnUse">
<stop stop-color="#87889F"/>
<stop offset="1" stop-color="#6A6A8D"/>
</linearGradient>
</defs>
</svg>
