<svg width="42" height="56" viewBox="0 0 42 56" fill="none" xmlns="http://www.w3.org/2000/svg">
<path fill-rule="evenodd" clip-rule="evenodd" d="M32.7774 11.3446C35.3987 13.4203 38.0198 15.4958 40.6637 17.5725C41.7603 18.4319 41.9253 19.9891 41.0281 21.0512C40.3234 21.8831 39.6187 22.7288 38.914 23.5744C37.7693 24.9494 35.8099 25.3275 34.2183 24.5025C33.5411 24.1519 32.8674 23.8013 32.259 23.3956C31.1693 22.7047 29.9283 22.5638 28.7011 22.8456C26.5836 23.3991 24.7411 22.8456 23.0258 21.5325C22.8522 21.3916 22.6812 21.2541 22.5102 21.1166C22.3392 20.9791 22.1681 20.8416 21.9945 20.7006L27.5736 27.9194C28.1821 28.7066 28.8867 29.4285 29.6602 30.061C29.6602 30.061 31.2655 31.4635 32.778 32.9623C34.2905 34.461 34.0465 36.5063 34.0465 36.5063V41.367H3.79284V34.9216V34.6398C3.82199 33.6641 3.8276 32.6979 3.8332 31.7326C3.84148 30.3072 3.84975 28.8838 3.93378 27.4347C4.05753 24.2585 4.40816 21.1337 5.16098 18.0125C5.84504 15.1009 6.72161 12.1928 8.50912 9.69024C10.1523 7.3321 12.0635 5.6649 15.147 5.80584C17.2095 5.87459 18.8423 5.11146 19.8736 3.0352C20.6264 1.58113 21.9258 0.677059 23.5002 0.195806C24.1842 -0.0138823 24.5314 0.195806 24.4627 0.817998C24.0605 3.32051 25.023 5.25584 27.003 6.77866C28.934 8.30107 30.8558 9.82287 32.7774 11.3446ZM34.5504 45.7532L37.9879 52.6316C38.256 53.1645 38.2285 53.797 37.9157 54.3023C37.5995 54.8076 37.046 55.117 36.4513 55.117H2.07611C1.48142 55.117 0.927977 54.8041 0.615162 54.2988C0.302348 53.7935 0.271411 53.161 0.539537 52.6282L3.97706 45.7532C4.26925 45.1722 4.86394 44.8044 5.51363 44.8044H33.0138C33.6635 44.8044 34.2582 45.1722 34.5504 45.7532Z" fill="url(#paint0_linear)"/>
<defs>
<linearGradient id="paint0_linear" x1="20.9822" y1="0.117065" x2="20.9822" y2="55.117" gradientUnits="userSpaceOnUse">
<stop stop-color="#87889F"/>
<stop offset="1" stop-color="#6A6A8D"/>
</linearGradient>
</defs>
</svg>
