<svg width="48" height="38" viewBox="0 0 48 38" fill="none" xmlns="http://www.w3.org/2000/svg">
<path d="M22.547 5.0793C17.0512 1.71805 8.14509 0.793904 3.66342 0.5322C2.15862 0.450417 0.89917 1.59537 0.89917 3.0511V30.6772C0.89917 32.0021 1.97052 33.1143 3.35264 33.1879C7.40087 33.4006 15.5873 34.1775 21.2466 37.0317C22.1135 37.4651 23.144 36.8763 23.144 35.9276V6.14248C23.144 5.70903 22.9314 5.31647 22.547 5.0793ZM12.1115 25.6067L8.43951 19.1132L13.2074 9.5528L16.5687 19.7429L12.1115 25.6067Z" fill="white"/>
<path d="M45.2441 0.532108C40.7624 0.785634 31.8563 1.70978 26.3523 5.07921C25.9761 5.3082 25.7553 5.72529 25.7553 6.15874V35.9194C25.7553 36.8599 26.7858 37.4569 27.6608 37.0234C33.3202 34.1774 41.4984 33.4005 45.5467 33.1878C46.9288 33.1142 48.0001 32.0102 48.0001 30.6771V3.05101C48.0083 1.59528 46.7489 0.450326 45.2441 0.532108Z" fill="white"/>
</svg>
