<svg width="42" height="46" viewBox="0 0 42 46" fill="none" xmlns="http://www.w3.org/2000/svg">
<path fill-rule="evenodd" clip-rule="evenodd" d="M23.9632 0.608154C28.9601 0.789861 33.5028 2.78864 37.0007 5.92308L28.2333 14.6904C27.0522 13.7365 25.5531 13.1459 23.9632 12.9642V0.608154ZM7.24706 9.87517C10.7449 6.64988 15.333 4.6511 20.3754 4.42397V16.78C18.6946 16.9617 17.1955 17.5977 15.969 18.5971L7.24706 9.87517ZM6.01999 38.7667C2.84014 35.2688 0.841359 30.6807 0.705078 25.5929H13.0157C13.1066 27.2737 13.7425 28.7728 14.7419 30.0447L6.01999 38.7667ZM6.11085 11.0563C2.97642 14.4633 0.97764 19.0059 0.705078 23.9574H13.0611C13.2428 22.3675 13.8788 20.9593 14.8328 19.7782L6.11085 11.0563ZM7.20107 39.9477C10.6989 43.2184 15.287 45.2626 20.3748 45.4897V33.1791C18.6486 32.9974 17.1041 32.316 15.8776 31.2712L7.20107 39.9477ZM41.7699 25.5929C41.6336 30.7261 39.5894 35.4051 36.3187 38.9029L27.5967 30.181C28.6415 28.9091 29.2775 27.3191 29.4138 25.5929H41.7699ZM41.7714 23.9574C41.5443 18.9151 39.4547 14.3724 36.2294 10.92L27.5075 19.6873C28.5068 20.8684 29.1882 22.3675 29.3699 23.9574H41.7714ZM35.1835 40.0839C31.6857 43.2637 27.0976 45.3079 22.0552 45.4897H22.0098V33.179C23.6906 32.9973 25.1897 32.3614 26.4162 31.362L35.1835 40.0839Z" fill="white"/>
</svg>
