<svg width="40" height="45" viewBox="0 0 40 45" fill="none" xmlns="http://www.w3.org/2000/svg">
<path d="M35.3374 5.99443H31.1817V1.83872C31.1817 1.07685 30.5583 0.453491 29.7964 0.453491H27.026C26.2641 0.453491 25.6407 1.07685 25.6407 1.83872V5.99443H14.5589V1.83872C14.5589 1.07685 13.9355 0.453491 13.1736 0.453491H10.4032C9.6413 0.453491 9.01794 1.07685 9.01794 1.83872V5.99443H4.86224C2.56795 5.99443 0.706543 7.85583 0.706543 10.1501V14.3058H39.4931V10.1501C39.4931 7.85583 37.6317 5.99443 35.3374 5.99443ZM0.706543 40.6253C0.706543 42.9196 2.56795 44.781 4.86224 44.781H35.3374C37.6317 44.781 39.4931 42.9196 39.4931 40.6253V17.0763H0.706543V40.6253ZM12.3165 28.1841L17.0523 27.4915L19.1734 23.1973C19.5544 22.4181 20.6539 22.4354 21.0348 23.1973L23.156 27.4915L27.8918 28.1841C28.7402 28.3053 29.0779 29.3529 28.4632 29.959L25.0347 33.3008L25.8485 38.028C25.9957 38.8851 25.0953 39.5171 24.3421 39.1188L20.0998 36.8851L15.8662 39.1188C15.113 39.5171 14.2126 38.8764 14.3598 38.028L15.1736 33.3008L11.7451 29.959C11.1218 29.3529 11.4681 28.3053 12.3165 28.1841Z" fill="white"/>
</svg>
