<svg width="45" height="46" viewBox="0 0 45 46" fill="none" xmlns="http://www.w3.org/2000/svg">
<path d="M44.74 14.7396C44.1478 9.39261 41.831 4.64216 38.4146 1.21459C37.6173 0.41376 36.3463 0.857898 36.0719 1.99032C35.0303 6.29057 31.9811 9.63243 28.1172 10.7545V24.1063C31.9811 25.2283 35.0303 28.5702 36.0719 32.8704C36.3463 34.0028 37.6173 34.447 38.4146 33.6461C41.831 30.2186 44.1478 25.469 44.74 20.1212L39.3064 17.4304L44.74 14.7396ZM9.15676 1.99032C8.88491 0.857898 7.62608 0.414626 6.8365 1.21459C2.89464 5.20837 0.412476 10.9908 0.412476 17.4304C0.412476 23.8699 2.89464 29.6524 6.8365 33.6461C7.62695 34.447 8.88491 34.0028 9.15676 32.8704C10.1888 28.5702 13.2077 25.2283 17.0353 24.1063V10.7545C13.2077 9.63243 10.1888 6.29057 9.15676 1.99032ZM23.9614 6.34858H21.191C20.4256 6.34858 19.8057 6.96847 19.8057 7.7338V43.7496C19.8057 44.515 20.4256 45.1349 21.191 45.1349H23.9614C24.7268 45.1349 25.3467 44.515 25.3467 43.7496V7.7338C25.3467 6.96847 24.7268 6.34858 23.9614 6.34858Z" fill="white"/>
</svg>
