<svg width="51" height="51" viewBox="0 0 51 51" fill="none" xmlns="http://www.w3.org/2000/svg">
<g filter="url(#filter0_d)">
<g clip-path="url(#clip0)">
<path d="M36.2143 45.1515C36.6576 45.1515 37.1009 44.9299 37.3225 44.4866L47.7394 23.6527C47.9611 23.2094 47.9611 22.7661 47.7394 22.5445L37.3225 1.71059C37.1009 1.04568 36.2143 0.824044 35.5494 1.04568C35.3278 1.26732 35.1061 1.26732 34.8845 1.71059L31.1166 9.68954L27.1272 1.48896C26.6839 0.824044 25.7973 0.602406 25.1324 1.04568C24.9108 1.04568 24.6892 1.26732 24.6892 1.48896L20.478 9.68954L16.4886 1.48896C16.2669 0.824044 15.3804 0.602406 14.7155 1.04568C14.4938 1.04568 14.2722 1.26732 14.2722 1.48896L3.85524 22.3229C3.63361 22.5445 3.63361 22.7661 3.63361 22.9878C3.63361 23.2094 3.63361 23.4311 3.85524 23.6527L14.2722 44.4866C14.4938 45.1515 15.3804 45.3732 16.0453 45.1515C16.2669 44.9299 16.4886 44.9299 16.7102 44.4866L20.478 36.286L24.4675 44.4866C24.6892 45.1515 25.5757 45.3732 26.2406 45.1515C26.4623 44.9299 26.6839 44.9299 26.9055 44.4866L30.895 36.286L34.8845 44.4866C35.3278 44.9299 35.771 45.1515 36.2143 45.1515ZM15.3804 40.9404L6.29325 22.9878L15.3804 5.03515L19.1482 12.5708L14.2722 22.3229C14.2722 22.5445 14.0506 22.7661 14.0506 22.9878C14.0506 23.2094 14.0506 23.4311 14.2722 23.6527L19.1482 33.4047L15.3804 40.9404ZM25.7973 40.9404L16.9318 22.9878L25.7973 5.03515L29.5652 12.5708L24.6892 22.3229C24.6892 22.5445 24.4675 22.7661 24.4675 22.9878C24.4675 23.2094 24.4675 23.4311 24.6892 23.6527L29.5652 33.4047L25.7973 40.9404Z" fill="url(#paint0_linear)"/>
</g>
</g>
<defs>
<filter id="filter0_d" x="0.862467" y="0.823242" width="49.8684" height="49.8684" filterUnits="userSpaceOnUse" color-interpolation-filters="sRGB">
<feFlood flood-opacity="0" result="BackgroundImageFix"/>
<feColorMatrix in="SourceAlpha" type="matrix" values="0 0 0 0 0 0 0 0 0 0 0 0 0 0 0 0 0 0 127 0"/>
<feOffset dy="2.77047"/>
<feGaussianBlur stdDeviation="1.38523"/>
<feColorMatrix type="matrix" values="0 0 0 0 0 0 0 0 0 0 0 0 0 0 0 0 0 0 0.1 0"/>
<feBlend mode="normal" in2="BackgroundImageFix" result="effect1_dropShadow"/>
<feBlend mode="normal" in="SourceGraphic" in2="effect1_dropShadow" result="shape"/>
</filter>
<linearGradient id="paint0_linear" x1="25.7696" y1="0.815063" x2="25.7696" y2="45.2346" gradientUnits="userSpaceOnUse">
<stop stop-color="#87889F"/>
<stop offset="1" stop-color="#6A6A8D"/>
</linearGradient>
<clipPath id="clip0">
<rect x="3.63293" y="0.823242" width="44.3275" height="44.3275" fill="white"/>
</clipPath>
</defs>
</svg>
