<svg width="51" height="53" viewBox="0 0 51 53" fill="none" xmlns="http://www.w3.org/2000/svg">
<path d="M45.9898 41.3993C45.9898 41.3993 50.1455 41.1222 50.1455 39.1829C50.1455 37.2436 45.4357 36.4124 44.3275 36.1354C43.2193 35.5813 42.9422 35.5813 42.9422 35.5813C42.9422 35.5813 42.9422 35.0272 42.6652 34.4731C42.3881 33.919 42.3881 32.8108 42.3881 32.8108C42.3881 32.8108 42.6652 32.8108 44.0504 31.9797C45.1586 31.4256 46.5438 30.8715 46.5438 29.4863C46.5438 28.101 44.6045 26.7158 42.1111 26.1617C39.6177 25.6076 36.8472 24.7765 36.8472 24.7765C36.8472 24.7765 36.0161 24.2224 36.2931 23.6683C36.2931 23.1142 36.5702 22.5601 36.5702 22.5601C36.5702 22.5601 40.7259 21.1749 40.7259 18.4044C40.7259 15.6339 37.9554 15.0798 35.1849 14.2487C32.1374 13.1405 31.0292 12.5864 29.644 11.4782C28.2588 10.37 27.1506 9.26184 27.1506 9.26184C27.1506 9.26184 27.4276 8.15365 27.1506 7.32251C26.8735 6.49137 26.3194 6.21433 26.3194 6.21433V5.38319C26.3194 5.38319 26.8735 5.10614 26.5965 4.82909C26.8735 4.275 27.4276 3.72091 27.4276 2.88977C27.4276 1.78158 26.3194 0.950439 25.2113 0.950439C24.1031 0.950439 23.2719 1.78158 23.2719 2.88977C23.2719 3.44386 23.549 3.99795 23.826 4.275C23.826 4.275 23.826 4.55205 23.826 4.82909C24.1031 5.10614 24.1031 5.93728 24.1031 5.93728C24.1031 5.93728 22.9949 6.49137 22.9949 7.59956C22.9949 8.70775 22.9949 8.98479 22.9949 8.98479C22.9949 8.98479 20.2244 12.5864 16.6228 13.6946C13.0212 15.0798 10.5278 15.3569 9.69664 17.2962C8.8655 19.2355 10.8048 20.6208 11.3589 20.8978C12.1901 21.4519 13.8523 22.283 13.8523 22.283V23.9453C13.8523 23.9453 13.2982 24.4994 12.7441 24.4994C12.1901 24.7765 6.92617 25.8846 4.98684 27.2699C3.32456 28.6551 4.1557 30.0403 4.98684 30.5944C6.09503 31.1485 8.3114 32.2567 8.3114 32.5338C8.3114 32.8108 8.3114 34.4731 8.3114 34.4731C8.3114 34.4731 5.26389 35.5813 3.32456 36.4124C1.10819 37.5206 0 38.0747 0 39.1829C0 40.5681 1.93933 41.1222 2.77047 41.1222C3.60161 41.3993 4.1557 41.3993 4.1557 41.3993V48.3254H0.554093V52.2041H50.1455V48.3254H46.2668L45.9898 41.3993ZM28.2588 19.5126C31.8604 19.7896 34.3538 20.8978 35.462 21.4519V23.1142C34.3538 22.8371 31.8604 22.006 28.2588 21.4519V19.5126ZM23.826 3.16681C23.826 2.61272 24.1031 2.33567 24.6572 2.33567C25.2113 2.33567 25.4883 2.61272 25.4883 3.16681C25.4883 3.72091 25.2113 3.99795 24.6572 3.99795C24.3801 3.99795 23.826 3.44386 23.826 3.16681ZM14.6835 21.7289C15.7917 21.1749 18.5621 19.5126 23.2719 19.2355V21.4519C19.3933 22.006 15.7917 23.1142 14.6835 23.6683V21.7289ZM9.14254 31.9797C10.5278 31.1485 16.6228 28.6551 27.1506 28.6551C34.9079 28.9322 39.8947 30.8715 41.557 31.7026V34.196C39.8947 33.3649 33.5227 30.8715 24.6572 30.8715C17.1769 30.8715 10.8048 33.3649 9.14254 33.919V31.9797ZM5.81798 41.1222C5.81798 41.1222 13.0212 36.4124 25.4883 36.6895C36.8472 36.9665 44.6045 41.1222 44.6045 41.1222V48.3254H31.8604V41.6763H29.0899V48.3254H27.7047V41.6763H23.549V48.3254H22.1637V41.6763H19.3933V48.3254H5.81798V41.1222Z" fill="white"/>
</svg>
