<svg width="50" height="45" viewBox="0 0 50 45" fill="none" xmlns="http://www.w3.org/2000/svg">
<path d="M47.2022 22.5916C45.6837 22.5916 44.453 21.5122 44.453 20.1801V0.591553L49.8697 19.5949C50.3036 21.1169 48.9905 22.5916 47.2022 22.5916ZM0.536602 19.5949L5.95322 0.591553V20.1801C5.95322 21.5122 4.7226 22.5916 3.20409 22.5916C1.41574 22.5916 0.102619 21.1169 0.536602 19.5949ZM8.70321 18.7089C8.70321 8.35601 25.2031 0.591553 25.2031 0.591553C25.2031 0.591553 41.7031 8.35601 41.7031 18.7089C41.7031 25.8211 43.6676 31.2472 44.3783 34.2387C44.673 35.4787 44.0698 36.7626 42.9758 37.2671L27.9531 44.5916V22.5916L36.2031 19.8416V17.0916H14.2032V19.8416L22.4531 22.5916V44.5916L7.42962 37.2671C6.33564 36.7626 5.73236 35.4787 6.02713 34.2387C6.73869 31.2472 8.70321 25.8211 8.70321 18.7089Z" fill="white"/>
</svg>
