<svg width="27" height="30" viewBox="0 0 27 30" fill="none" xmlns="http://www.w3.org/2000/svg">
<path d="M13.8564 29.8576C15.9051 29.8576 17.5707 28.1978 17.5707 26.1433H10.1422C10.1422 28.1978 11.8078 29.8576 13.8564 29.8576ZM26.3573 21.1697C25.2373 19.9625 23.1364 18.1518 23.1364 12.2147C23.1364 7.70537 19.9734 4.09554 15.7136 3.2076V2.00045C15.7136 0.973221 14.8837 0.143311 13.8564 0.143311C12.8292 0.143311 11.9993 0.973221 11.9993 2.00045V3.2076C7.73948 4.09554 4.57653 7.70537 4.57653 12.2147C4.57653 18.1518 2.47564 19.9625 1.35555 21.1697C1.00734 21.5411 0.856445 21.988 0.856445 22.429C0.862249 23.3808 1.61091 24.2862 2.71939 24.2862H24.9935C26.102 24.2862 26.8506 23.3808 26.8564 22.429C26.8564 21.988 26.7056 21.5411 26.3573 21.1697Z" fill="url(#paint0_linear)"/>
<defs>
<linearGradient id="paint0_linear" x1="0.856405" y1="15.0005" x2="26.8565" y2="15.0005" gradientUnits="userSpaceOnUse">
<stop stop-color="#9D9ACC"/>
<stop offset="1" stop-color="#6F6D99"/>
</linearGradient>
</defs>
</svg>
